<svg width="640" height="480" xmlns="http://www.w3.org/2000/svg" xmlns:svg="http://www.w3.org/2000/svg" xmlns:se="http://svg-edit.googlecode.com">
 <!-- Created with SVG-edit - https://github.com/SVG-Edit/svgedit-->

 <g class="layer">
  <title>Layer 1</title>
  <rect fill="#000000" height="480" id="backgroundrect" width="640"/>
 </g>
 <g class="layer">
  <title>Layer 2</title>
  <g id="svg_1" xmlns="http://www.w3.org/2000/svg">
   <g id="svg_2">
    <g id="svg_3">
     <path d="m115.667,275.667c-5.867,0 -10.667,4.8 -10.667,10.666c0,5.867 4.8,10.667 10.667,10.667c5.867,0 10.667,-4.8 10.667,-10.667c-0.001,-5.866 -4.801,-10.666 -10.667,-10.666z" data-original="#000000" fill="#1b01a2" id="svg_4"/>
     <path d="m115.667,190.333c-5.867,0 -10.667,4.8 -10.667,10.667c0,5.867 4.8,10.667 10.667,10.667c5.867,0 10.667,-4.8 10.667,-10.667c-0.001,-5.867 -4.801,-10.667 -10.667,-10.667z" data-original="#000000" fill="#1b01a2" id="svg_5"/>
     <path d="m265,425c-5.867,0 -10.667,4.8 -10.667,10.667c0,5.867 4.8,10.667 10.667,10.667c5.867,0 10.667,-4.8 10.667,-10.667c0,-5.867 -4.8,-10.667 -10.667,-10.667z" data-original="#000000" fill="#1b01a2" id="svg_6"/>
     <path d="m179.667,94.333c-11.733,0 -21.333,9.6 -21.333,21.333s9.599,21.334 21.333,21.334s21.333,-9.6 21.333,-21.333s-9.6,-21.334 -21.333,-21.334z" data-original="#000000" fill="#1b01a2" id="svg_7"/>
     <path d="m179.667,179.667c-11.733,0 -21.333,9.6 -21.333,21.333s9.6,21.333 21.333,21.333s21.333,-9.6 21.333,-21.333s-9.6,-21.333 -21.333,-21.333z" data-original="#000000" fill="#1b01a2" id="svg_8"/>
     <path d="m179.667,265c-11.733,0 -21.333,9.6 -21.333,21.333c0,11.733 9.6,21.333 21.333,21.333s21.333,-9.599 21.333,-21.333c0,-11.733 -9.6,-21.333 -21.333,-21.333z" data-original="#000000" fill="#1b01a2" id="svg_9"/>
     <path d="m499.667,211.667c5.867,0 10.667,-4.8 10.667,-10.667c0,-5.867 -4.8,-10.667 -10.667,-10.667c-5.867,0 -10.667,4.8 -10.667,10.667c0,5.867 4.8,10.667 10.667,10.667z" data-original="#000000" fill="#1b01a2" id="svg_10"/>
     <path d="m350.333,62.333c5.867,0 10.667,-4.8 10.667,-10.667c0,-5.866 -4.8,-10.666 -10.667,-10.666c-5.867,0 -10.667,4.8 -10.667,10.667c0.001,5.866 4.801,10.666 10.667,10.666z" data-original="#000000" fill="#1b01a2" id="svg_11"/>
     <path d="m265,137c11.733,0 21.333,-9.6 21.333,-21.333s-9.6,-21.333 -21.333,-21.333s-21.333,9.6 -21.333,21.333s9.6,21.333 21.333,21.333z" data-original="#000000" fill="#1b01a2" id="svg_12"/>
     <path d="m265,62.333c5.867,0 10.667,-4.8 10.667,-10.667c0,-5.866 -4.8,-10.666 -10.667,-10.666c-5.867,0 -10.667,4.8 -10.667,10.667c0,5.866 4.8,10.666 10.667,10.666z" data-original="#000000" fill="#1b01a2" id="svg_13"/>
     <path d="m350.333,137c11.733,0 21.333,-9.6 21.333,-21.333s-9.6,-21.333 -21.333,-21.333c-11.733,0 -21.333,9.6 -21.333,21.333s9.6,21.333 21.333,21.333z" data-original="#000000" fill="#1b01a2" id="svg_14"/>
     <path d="m179.667,350.333c-11.733,0 -21.333,9.6 -21.333,21.333c0,11.733 9.6,21.333 21.333,21.333s21.333,-9.599 21.333,-21.332c0,-11.734 -9.6,-21.334 -21.333,-21.334z" data-original="#000000" fill="#1b01a2" id="svg_15"/>
     <path d="m350.333,169c-17.707,0 -32,14.293 -32,32s14.293,32 32,32s32,-14.293 32,-32s-14.293,-32 -32,-32z" data-original="#000000" fill="#1b01a2" id="svg_16"/>
     <path d="m435.667,265c-11.733,0 -21.333,9.6 -21.333,21.333c0,11.733 9.6,21.333 21.333,21.333c11.733,0 21.333,-9.6 21.333,-21.333c0,-11.733 -9.6,-21.333 -21.333,-21.333z" data-original="#000000" fill="#1b01a2" id="svg_17"/>
     <path d="m435.667,350.333c-11.733,0 -21.333,9.6 -21.333,21.333c0,11.733 9.6,21.333 21.333,21.333c11.733,0.001 21.333,-9.599 21.333,-21.332c0,-11.734 -9.6,-21.334 -21.333,-21.334z" data-original="#000000" fill="#1b01a2" id="svg_18"/>
     <path d="m435.667,179.667c-11.733,0 -21.333,9.6 -21.333,21.333s9.6,21.333 21.333,21.333c11.733,0 21.333,-9.6 21.333,-21.333s-9.6,-21.333 -21.333,-21.333z" data-original="#000000" fill="#1b01a2" id="svg_19"/>
     <path d="m499.667,275.667c-5.867,0 -10.667,4.8 -10.667,10.667c0,5.866 4.8,10.666 10.667,10.666c5.867,0 10.667,-4.8 10.667,-10.667c-0.001,-5.866 -4.801,-10.666 -10.667,-10.666z" data-original="#000000" fill="#1b01a2" id="svg_20"/>
     <path d="m435.667,94.333c-11.733,0 -21.333,9.6 -21.333,21.333s9.599,21.334 21.333,21.334c11.733,0 21.333,-9.6 21.333,-21.333s-9.6,-21.334 -21.333,-21.334z" data-original="#000000" fill="#1b01a2" id="svg_21"/>
     <path d="m265,254.333c-17.707,0 -32,14.293 -32,32s14.293,32 32,32s32,-14.293 32,-32s-14.293,-32 -32,-32z" data-original="#000000" fill="#1b01a2" id="svg_22"/>
     <path d="m265,350.333c-11.733,0 -21.333,9.6 -21.333,21.333c0,11.733 9.6,21.333 21.333,21.333s21.333,-9.6 21.333,-21.333c0,-11.733 -9.6,-21.333 -21.333,-21.333z" data-original="#000000" fill="#1b01a2" id="svg_23"/>
     <path d="m265,169c-17.707,0 -32,14.293 -32,32s14.293,32 32,32s32,-14.293 32,-32s-14.293,-32 -32,-32z" data-original="#000000" fill="#1b01a2" id="svg_24"/>
     <path d="m350.333,350.333c-11.733,0 -21.333,9.6 -21.333,21.333c0,11.734 9.6,21.334 21.333,21.334c11.733,0 21.333,-9.6 21.333,-21.333c0.001,-11.734 -9.599,-21.334 -21.333,-21.334z" data-original="#000000" fill="#1b01a2" id="svg_25"/>
     <path d="m350.333,425c-5.867,0 -10.667,4.8 -10.667,10.667c0,5.867 4.8,10.667 10.667,10.667c5.867,0 10.667,-4.8 10.667,-10.667c0,-5.867 -4.8,-10.667 -10.667,-10.667z" data-original="#000000" fill="#1b01a2" id="svg_26"/>
     <path d="m350.333,254.333c-17.707,0 -32,14.293 -32,32s14.293,32 32,32s32,-14.293 32,-32s-14.293,-32 -32,-32z" data-original="#000000" fill="#1b01a2" id="svg_27"/>
    </g>
   </g>
  </g>
  <text fill="#FFFFFF" font-family="Sans-serif" font-size="120" font-weight="bold" id="svg_28" opacity="0.85" stroke-width="0" text-anchor="middle" x="309" xml:space="preserve" y="248">compumizer technosols</text>
 </g>
</svg>